<svg width="512" height="512" viewBox="0 0 512 512" fill="none" xmlns="http://www.w3.org/2000/svg">
<rect x="362.656" y="269.287" width="144" height="28" fill="black"/>
<path d="M362.657 269.451L385.813 286.274L479.78 156.939L444.156 156.938L362.657 269.451Z" fill="black"/>
<path d="M482.656 339.285H448.656V233.745L482.496 188.285H482.656V339.285ZM448.656 198.942V188.285H456.59L448.656 198.942Z" fill="black"/>
<path d="M290 155.002C323.137 155.002 350 178.507 350 207.502C350 236.497 323.137 260.002 290 260.002C287.41 260.002 284.859 259.858 282.355 259.579L283.165 258.707L283 259.502L308 235.002L308.47 233.355L312 228.502L311.955 228.494C315.743 223.933 318 218.214 318 212.002C318 197.09 305.016 185.002 289 185.002C273.073 185.002 260.147 196.955 260.003 211.752L230.001 207.252C230.155 178.372 256.958 155.002 290 155.002Z" fill="black"/>
<path d="M244 339.002H228V312.002H271.9L244 339.002ZM353 339.002H269.5L299.5 309.002H353V339.002Z" fill="black"/>
<path d="M228 312.354L317.413 225.002L348.5 219.002L345.254 231.986C345.085 232.661 344.838 233.314 344.518 233.932C340.2 242.26 334.596 249.856 327.915 256.441L249.179 334.032L228 312.354Z" fill="black"/>
<rect x="180" y="249.002" width="33" height="90" fill="black"/>
<path d="M76 202.002C103.614 202.002 126 224.388 126 252.002C126 273.647 112.245 292.079 93 299.036V268.139C93.6507 265.708 94 263.147 94 260.502C94 244.762 81.6878 232.002 66.5 232.002C51.3122 232.002 39 244.762 39 260.502C39 261.005 39.0132 261.505 39.0381 262.002H38V284.495C30.52 275.756 26 264.407 26 252.002C26 224.388 48.3858 202.002 76 202.002Z" fill="black"/>
<path d="M160.5 203.002C189.495 203.002 213 225.388 213 253.002C213 274.054 199.339 292.066 180 299.438V268.139C180.651 265.708 181 263.147 181 260.502C181 244.762 168.688 232.002 153.5 232.002C138.312 232.002 126 244.762 126 260.502C126 261.005 126.013 261.505 126.038 262.002H125V289.835C114.551 280.696 108 267.578 108 253.002C108 225.388 131.505 203.002 160.5 203.002Z" fill="black"/>
<rect x="6" y="204.002" width="33" height="135" fill="black"/>
<rect x="93" y="249.002" width="33" height="90" fill="black"/>
</svg>
